<svg xmlns="http://www.w3.org/2000/svg" viewBox="0 0 1200 675" width="100%" height="100%">
  <defs>
    <!-- Radial Gradients for Deep Executive Glow -->
    <radialGradient id="bgGlowCyan" cx="25%" cy="35%" r="65%">
      <stop offset="0%" stop-color="#00A3E0" stop-opacity="0.22" />
      <stop offset="100%" stop-color="#050B17" stop-opacity="0" />
    </radialGradient>
    <radialGradient id="bgGlowEmerald" cx="75%" cy="45%" r="60%">
      <stop offset="0%" stop-color="#10B981" stop-opacity="0.18" />
      <stop offset="100%" stop-color="#050B17" stop-opacity="0" />
    </radialGradient>
    <radialGradient id="bgGlowPurple" cx="50%" cy="80%" r="50%">
      <stop offset="0%" stop-color="#8B5CF6" stop-opacity="0.15" />
      <stop offset="100%" stop-color="#050B17" stop-opacity="0" />
    </radialGradient>

    <linearGradient id="cardGradDark" x1="0%" y1="0%" x2="0%" y2="100%">
      <stop offset="0%" stop-color="#0D192E" />
      <stop offset="100%" stop-color="#060C18" />
    </linearGradient>
    <linearGradient id="excelHeaderGrad" x1="0%" y1="0%" x2="100%" y2="0%">
      <stop offset="0%" stop-color="#107C41" />
      <stop offset="100%" stop-color="#0B5A2F" />
    </linearGradient>
    <linearGradient id="sapHeaderGrad" x1="0%" y1="0%" x2="100%" y2="0%">
      <stop offset="0%" stop-color="#0077B6" />
      <stop offset="100%" stop-color="#00A3E0" />
    </linearGradient>
    <linearGradient id="beamGrad" x1="0%" y1="0%" x2="100%" y2="0%">
      <stop offset="0%" stop-color="#10B981" stop-opacity="0.9" />
      <stop offset="50%" stop-color="#00A3E0" stop-opacity="1" />
      <stop offset="100%" stop-color="#3B82F6" stop-opacity="0.9" />
    </linearGradient>
    <linearGradient id="scanBeamGrad" x1="0%" y1="0%" x2="100%" y2="0%">
      <stop offset="0%" stop-color="#00A3E0" stop-opacity="0" />
      <stop offset="50%" stop-color="#38BDF8" stop-opacity="0.8" />
      <stop offset="100%" stop-color="#00A3E0" stop-opacity="0" />
    </linearGradient>

    <filter id="glowEffect" x="-20%" y="-20%" width="140%" height="140%">
      <feGaussianBlur stdDeviation="6" result="blur" />
      <feComposite in="SourceGraphic" in2="blur" operator="over" />
    </filter>
  </defs>

  <!-- Deep Canvas Background -->
  <rect width="1200" height="675" fill="#050B17" />
  <rect width="1200" height="675" fill="url(#bgGlowCyan)" />
  <rect width="1200" height="675" fill="url(#bgGlowEmerald)" />
  <rect width="1200" height="675" fill="url(#bgGlowPurple)" />

  <!-- Subtle Blueprint Matrix Grid -->
  <g stroke="#1E293B" stroke-width="0.75" opacity="0.35">
    <line x1="80" y1="0" x2="80" y2="675" />
    <line x1="240" y1="0" x2="240" y2="675" />
    <line x1="400" y1="0" x2="400" y2="675" />
    <line x1="560" y1="0" x2="560" y2="675" />
    <line x1="720" y1="0" x2="720" y2="675" />
    <line x1="880" y1="0" x2="880" y2="675" />
    <line x1="1040" y1="0" x2="1040" y2="675" />
    <line x1="0" y1="90" x2="1200" y2="90" />
    <line x1="0" y1="210" x2="1200" y2="210" />
    <line x1="0" y1="330" x2="1200" y2="330" />
    <line x1="0" y1="450" x2="1200" y2="450" />
    <line x1="0" y1="570" x2="1200" y2="570" />
  </g>

  <!-- OUTER TERMINAL FRAME -->
  <rect x="40" y="35" width="1120" height="605" rx="18" fill="url(#cardGradDark)" stroke="#334155" stroke-width="2" />

  <!-- Top Title Bar -->
  <rect x="40" y="35" width="1120" height="46" rx="18" fill="#091424" />
  <rect x="40" y="65" width="1120" height="16" fill="#091424" />
  <line x1="40" y1="81" x2="1160" y2="81" stroke="#1E293B" stroke-width="1.5" />

  <!-- Window Control Dots -->
  <circle cx="68" cy="58" r="6" fill="#EF4444" opacity="0.9" />
  <circle cx="88" cy="58" r="6" fill="#F59E0B" opacity="0.9" />
  <circle cx="108" cy="58" r="6" fill="#10B981" opacity="0.9" />

  <text x="136" y="62" fill="#94A3B8" font-family="monospace" font-size="12" font-weight="bold">
    knooviq-automation-studio://desktop-sap-runner-active
  </text>

  <rect x="910" y="47" width="230" height="26" rx="6" fill="#00A3E0" fill-opacity="0.15" stroke="#00A3E0" stroke-opacity="0.4" />
  <circle cx="926" cy="60" r="4" fill="#00A3E0" />
  <text x="940" y="64" fill="#38BDF8" font-family="monospace" font-size="10" font-weight="bold">
    NATIVE EXCEL • SAP S/4HANA BRIDGE
  </text>

  <!-- =========================================================================
       LEFT SIDE: MICROSOFT EXCEL WORKBOOK RUNNER
       ========================================================================= -->
  <g transform="translate(68, 105)">
    <!-- Excel Card Frame -->
    <rect x="0" y="0" width="480" height="460" rx="14" fill="#070E1C" stroke="#107C41" stroke-width="1.5" />
    
    <!-- Excel Header Ribbon -->
    <rect x="0" y="0" width="480" height="40" rx="14" fill="url(#excelHeaderGrad)" />
    <rect x="0" y="26" width="480" height="14" fill="#107C41" />
    
    <!-- Excel Icon Badge -->
    <rect x="14" y="9" width="22" height="22" rx="4" fill="#FFFFFF" />
    <text x="20" y="25" fill="#107C41" font-family="sans-serif" font-size="14" font-weight="black">X</text>
    <text x="46" y="25" fill="#FFFFFF" font-family="sans-serif" font-size="12" font-weight="bold">
      Microsoft Excel • Automation Studio Add-In
    </text>
    <rect x="380" y="10" width="86" height="20" rx="4" fill="#064E24" />
    <text x="392" y="24" fill="#A7F3D0" font-family="monospace" font-size="10" font-weight="bold">CONNECTED</text>

    <!-- Excel Formula / Template Ribbon -->
    <rect x="14" y="52" width="452" height="28" rx="6" fill="#0F172A" stroke="#334155" stroke-width="1" />
    <text x="26" y="70" fill="#64748B" font-family="monospace" font-size="10">Template: Mass_Journal_Posting_GeneralLedger.xlsx</text>
    <rect x="376" y="56" width="84" height="20" rx="4" fill="#10B981" fill-opacity="0.2" stroke="#10B981" stroke-width="0.75" />
    <text x="386" y="70" fill="#34D399" font-family="monospace" font-size="9" font-weight="bold">RUN BATCH</text>

    <!-- Spreadsheet Table Header -->
    <g transform="translate(14, 90)">
      <rect x="0" y="0" width="452" height="26" fill="#1E293B" />
      <text x="12" y="17" fill="#94A3B8" font-family="monospace" font-size="10" font-weight="bold">ROW</text>
      <text x="50" y="17" fill="#94A3B8" font-family="monospace" font-size="10" font-weight="bold">POST_PERIOD</text>
      <text x="140" y="17" fill="#94A3B8" font-family="monospace" font-size="10" font-weight="bold">COMP_CODE</text>
      <text x="230" y="17" fill="#94A3B8" font-family="monospace" font-size="10" font-weight="bold">GL_ACCOUNT</text>
      <text x="340" y="17" fill="#94A3B8" font-family="monospace" font-size="10" font-weight="bold">STATUS</text>
    </g>

    <!-- Data Rows (Clean qualitative values, no raw numbers) -->
    <g transform="translate(14, 120)" font-family="monospace" font-size="10">
      <!-- Row Alpha -->
      <rect x="0" y="0" width="452" height="30" fill="#0B132B" stroke="#1E293B" stroke-width="0.5" />
      <text x="12" y="19" fill="#64748B">A</text>
      <text x="50" y="19" fill="#E2E8F0">ACTIVE</text>
      <text x="140" y="19" fill="#38BDF8">CC_WEST</text>
      <text x="230" y="19" fill="#E2E8F0">GL_REVENUE</text>
      <rect x="340" y="6" width="96" height="18" rx="4" fill="#10B981" fill-opacity="0.2" stroke="#10B981" stroke-width="0.75" />
      <text x="352" y="19" fill="#34D399" font-weight="bold">SYNCHRONIZED</text>

      <!-- Row Beta -->
      <rect x="0" y="34" width="452" height="30" fill="#070E1C" stroke="#1E293B" stroke-width="0.5" />
      <text x="12" y="53" fill="#64748B">B</text>
      <text x="50" y="53" fill="#E2E8F0">ACTIVE</text>
      <text x="140" y="53" fill="#38BDF8">CC_WEST</text>
      <text x="230" y="53" fill="#E2E8F0">GL_OPEX_CORE</text>
      <rect x="340" y="40" width="96" height="18" rx="4" fill="#10B981" fill-opacity="0.2" stroke="#10B981" stroke-width="0.75" />
      <text x="352" y="53" fill="#34D399" font-weight="bold">SYNCHRONIZED</text>

      <!-- Row Gamma -->
      <rect x="0" y="68" width="452" height="30" fill="#0B132B" stroke="#1E293B" stroke-width="0.5" />
      <text x="12" y="87" fill="#64748B">C</text>
      <text x="50" y="87" fill="#E2E8F0">ACTIVE</text>
      <text x="140" y="87" fill="#38BDF8">CC_EAST</text>
      <text x="230" y="87" fill="#E2E8F0">GL_BALANCE</text>
      <rect x="340" y="74" width="96" height="18" rx="4" fill="#10B981" fill-opacity="0.2" stroke="#10B981" stroke-width="0.75" />
      <text x="352" y="87" fill="#34D399" font-weight="bold">SYNCHRONIZED</text>

      <!-- Row Delta -->
      <rect x="0" y="102" width="452" height="30" fill="#070E1C" stroke="#1E293B" stroke-width="0.5" />
      <text x="12" y="121" fill="#64748B">D</text>
      <text x="50" y="121" fill="#E2E8F0">ACTIVE</text>
      <text x="140" y="121" fill="#38BDF8">CC_GLOBAL</text>
      <text x="230" y="121" fill="#E2E8F0">GL_CLEARING</text>
      <rect x="340" y="108" width="96" height="18" rx="4" fill="#00A3E0" fill-opacity="0.2" stroke="#00A3E0" stroke-width="0.75" />
      <text x="358" y="121" fill="#38BDF8" font-weight="bold">COMMITTED</text>
    </g>

    <!-- In-Cell Live Execution Telemetry Strip -->
    <rect x="14" y="275" width="452" height="165" rx="8" fill="#0F172A" stroke="#334155" />
    <text x="26" y="300" fill="#94A3B8" font-family="monospace" font-size="11" font-weight="bold">
      EXECUTION TELEMETRY (EXCEL WRITEBACK)
    </text>
    <line x1="26" y1="310" x2="452" y2="310" stroke="#1E293B" />
    
    <g transform="translate(26, 330)" font-family="monospace" font-size="10">
      <text x="0" y="0" fill="#34D399">• Row A: Document Posted in SAP S/4HANA (Standard Reference)</text>
      <text x="0" y="22" fill="#34D399">• Row B: Line Items Reconciled Across General Ledger Accounts</text>
      <text x="0" y="44" fill="#38BDF8">• Row C: Pre-Flight Business Check: Passed Flawlessly</text>
      <text x="0" y="66" fill="#A855F7">• Row D: Role-Based Authorization Verified and Committed</text>
      <text x="0" y="88" fill="#64748B">• Batch Execution: Zero Field Drift • Complete Audit Trail</text>
    </g>
  </g>

  <!-- =========================================================================
       CENTER BRIDGE: BIDIRECTIONAL CONNECTOR & CYBER PULSES
       ========================================================================= -->
  <g transform="translate(565, 240)">
    <!-- Connection Stream Paths -->
    <path d="M 0,30 C 35,30 35,30 70,30" stroke="url(#beamGrad)" stroke-width="4" fill="none" filter="url(#glowEffect)" />
    <path d="M 0,90 C 35,90 35,90 70,90" stroke="url(#beamGrad)" stroke-width="3" stroke-dasharray="6,4" fill="none" />
    <path d="M 0,150 C 35,150 35,150 70,150" stroke="url(#beamGrad)" stroke-width="4" fill="none" filter="url(#glowEffect)" />

    <!-- Center Bridge Hub Pill -->
    <rect x="-5" y="60" width="80" height="60" rx="14" fill="#0B1528" stroke="#00A3E0" stroke-width="1.5" />
    <circle cx="35" cy="80" r="8" fill="#00A3E0" fill-opacity="0.3" stroke="#00A3E0" stroke-width="2" />
    <circle cx="35" cy="80" r="3" fill="#38BDF8" />
    <text x="12" y="105" fill="#38BDF8" font-family="monospace" font-size="8" font-weight="bold">BAPI BRIDGE</text>
  </g>

  <!-- =========================================================================
       RIGHT SIDE: SAP S/4HANA ENTERPRISE CORE
       ========================================================================= -->
  <g transform="translate(650, 105)">
    <!-- SAP Frame -->
    <rect x="0" y="0" width="480" height="460" rx="14" fill="#070E1C" stroke="#00A3E0" stroke-width="1.5" />

    <!-- SAP Header Ribbon -->
    <rect x="0" y="0" width="480" height="40" rx="14" fill="url(#sapHeaderGrad)" />
    <rect x="0" y="26" width="480" height="14" fill="#0077B6" />

    <text x="16" y="25" fill="#FFFFFF" font-family="sans-serif" font-size="12" font-weight="bold">
      SAP S/4HANA Enterprise Cloud • Core Engine
    </text>
    <rect x="355" y="10" width="110" height="20" rx="4" fill="#023E8A" />
    <text x="368" y="24" fill="#E0F2FE" font-family="monospace" font-size="10" font-weight="bold">ACTIVE RUNNER</text>

    <!-- SAP Transaction Subhead -->
    <rect x="14" y="52" width="452" height="28" rx="6" fill="#0F172A" stroke="#334155" stroke-width="1" />
    <text x="24" y="70" fill="#38BDF8" font-family="monospace" font-size="10" font-weight="bold">T-CODE: JOURNAL_POST / G/L ACCT POSTING</text>
    <text x="350" y="70" fill="#10B981" font-family="monospace" font-size="10">AUTH: VERIFIED</text>

    <!-- SAP Live Session Parameters Box -->
    <g transform="translate(14, 90)">
      <rect x="0" y="0" width="452" height="150" rx="8" fill="#0B132B" stroke="#1E293B" />
      
      <text x="18" y="25" fill="#94A3B8" font-family="monospace" font-size="10" font-weight="bold">
        SAP SYSTEM SESSION PARAMETERS
      </text>
      <line x1="18" y1="35" x2="434" y2="35" stroke="#1E293B" />

      <g transform="translate(18, 56)" font-family="monospace" font-size="10">
        <text x="0" y="0" fill="#64748B">System ID / Client:</text>
        <text x="190" y="0" fill="#E2E8F0" font-weight="bold">PRD_S4HANA / PROD_INSTANCE</text>

        <text x="0" y="22" fill="#64748B">User Context:</text>
        <text x="190" y="22" fill="#38BDF8">STANDARD_ERP_USER</text>

        <text x="0" y="44" fill="#64748B">RFC / OData Channel:</text>
        <text x="190" y="44" fill="#34D399">TLS Encrypted Secure RFC</text>

        <text x="0" y="66" fill="#64748B">Clean Core Rule:</text>
        <text x="190" y="66" fill="#A855F7">Zero Custom ABAP Invoked</text>
      </g>
    </g>

    <!-- SAP Business Logic Validator Module -->
    <g transform="translate(14, 255)">
      <rect x="0" y="0" width="452" height="185" rx="8" fill="#0F172A" stroke="#334155" />

      <text x="18" y="25" fill="#94A3B8" font-family="monospace" font-size="10" font-weight="bold">
        REAL-TIME POST-SIMULATION AUDIT
      </text>
      <line x1="18" y1="35" x2="434" y2="35" stroke="#1E293B" />

      <g transform="translate(18, 58)" font-family="monospace" font-size="10">
        <!-- Check 1 -->
        <circle cx="6" cy="-3" r="5" fill="#10B981" />
        <text x="22" y="0" fill="#E2E8F0">General Ledger Balance: Debits Equal Credits</text>

        <!-- Check 2 -->
        <circle cx="6" cy="23" r="5" fill="#10B981" />
        <text x="22" y="26" fill="#E2E8F0">Posting Period Status: Open for Current Month</text>

        <!-- Check 3 -->
        <circle cx="6" cy="49" r="5" fill="#10B981" />
        <text x="22" y="52" fill="#E2E8F0">Tax Determination: Standard HSN Rules Validated</text>

        <!-- Check 4 -->
        <circle cx="6" cy="75" r="5" fill="#10B981" />
        <text x="22" y="78" fill="#E2E8F0">Audit Lineage: Immutable User-Tagged Log Generated</text>
      </g>
    </g>
  </g>

  <!-- Bottom Global Status Footer -->
  <g transform="translate(68, 595)" font-family="monospace" font-size="11">
    <circle cx="8" cy="16" r="4" fill="#10B981" />
    <text x="22" y="20" fill="#94A3B8">
      STATUS: <tspan fill="#34D399" font-weight="bold">AUTONOMOUS BRIDGE ACTIVE</tspan> • CERTIFIED CLEAN CORE SAP EXTENSION
    </text>
    <text x="760" y="20" fill="#64748B">
      KNOOVIQ AUTOMATION STUDIO ENTERPRISE
    </text>
  </g>
</svg>
